<svg width="24" height="24" viewBox="0 0 24 24" fill="none" xmlns="http://www.w3.org/2000/svg">
<path fill-rule="evenodd" clip-rule="evenodd" d="M20.0635 19.043C19.665 19.4362 19.07 19.6328 18.2783 19.6328H5.68457C5.16895 19.6328 4.73665 19.5456 4.3877 19.3711C4.03874 19.1966 3.77702 18.9388 3.60254 18.5977C3.42806 18.2565 3.34082 17.8333 3.34082 17.3281V10.9922C3.34082 10.5078 3.48665 10.1289 3.77832 9.85547C4.06999 9.58203 4.47103 9.44531 4.98145 9.44531H6.66895V6.05469C6.66895 5.27865 6.86816 4.69141 7.2666 4.29297C7.66504 3.89453 8.26009 3.69531 9.05176 3.69531H18.2783C19.07 3.69531 19.665 3.89453 20.0635 4.29297C20.4619 4.69141 20.6611 5.27865 20.6611 6.05469V17.2812C20.6611 18.0625 20.4619 18.6497 20.0635 19.043ZM7.77832 18.2891H18.2236C18.5778 18.2891 18.8486 18.1966 19.0361 18.0117C19.2236 17.8268 19.3174 17.5495 19.3174 17.1797V6.14844C19.3174 5.78385 19.2236 5.50911 19.0361 5.32422C18.8486 5.13932 18.5778 5.04688 18.2236 5.04688H9.10645C8.75228 5.04688 8.48145 5.13932 8.29395 5.32422C8.10645 5.50911 8.0127 5.78385 8.0127 6.14844V17.2656C8.0127 17.651 7.93457 17.9922 7.77832 18.2891ZM17.4346 8.21094C17.57 8.21094 17.6833 8.16536 17.7744 8.07422C17.8656 7.98307 17.9111 7.86979 17.9111 7.73438C17.9111 7.60417 17.8656 7.49349 17.7744 7.40234C17.6833 7.3112 17.57 7.26562 17.4346 7.26562H9.90332C9.7679 7.26562 9.65332 7.3112 9.55957 7.40234C9.46582 7.49349 9.41895 7.60417 9.41895 7.73438C9.41895 7.86979 9.46582 7.98307 9.55957 8.07422C9.65332 8.16536 9.7679 8.21094 9.90332 8.21094H17.4346ZM17.7744 10.6562C17.6833 10.75 17.57 10.7969 17.4346 10.7969H9.90332C9.7679 10.7969 9.65332 10.75 9.55957 10.6562C9.46582 10.5625 9.41895 10.4505 9.41895 10.3203C9.41895 10.1849 9.46582 10.0703 9.55957 9.97656C9.65332 9.88281 9.7679 9.83594 9.90332 9.83594H17.4346C17.57 9.83594 17.6833 9.88281 17.7744 9.97656C17.8656 10.0703 17.9111 10.1849 17.9111 10.3203C17.9111 10.4505 17.8656 10.5625 17.7744 10.6562ZM5.68457 18.2891C5.39811 18.2891 5.15983 18.1927 4.96973 18C4.77962 17.8073 4.68457 17.5703 4.68457 17.2891V11.2344C4.68457 11.099 4.72493 10.9922 4.80566 10.9141C4.88639 10.8359 4.99707 10.7969 5.1377 10.7969H6.66895V17.2891C6.66895 17.5807 6.57389 17.8203 6.38379 18.0078C6.19368 18.1953 5.96061 18.2891 5.68457 18.2891ZM12.8721 15.7422C12.7106 15.9036 12.4867 15.9844 12.2002 15.9844H10.3252C10.0439 15.9844 9.82129 15.9036 9.65723 15.7422C9.49316 15.5807 9.41113 15.3568 9.41113 15.0703V13.3359C9.41113 13.0495 9.49316 12.8255 9.65723 12.6641C9.82129 12.5026 10.0439 12.4219 10.3252 12.4219H12.2002C12.4867 12.4219 12.7106 12.5026 12.8721 12.6641C13.0335 12.8255 13.1143 13.0495 13.1143 13.3359V15.0703C13.1143 15.3568 13.0335 15.5807 12.8721 15.7422ZM17.4268 13.375C17.5622 13.375 17.6768 13.3294 17.7705 13.2383C17.8643 13.1471 17.9111 13.0339 17.9111 12.8984C17.9111 12.7682 17.8643 12.6562 17.7705 12.5625C17.6768 12.4688 17.5622 12.4219 17.4268 12.4219H14.4346C14.2992 12.4219 14.1846 12.4688 14.0908 12.5625C13.9971 12.6562 13.9502 12.7682 13.9502 12.8984C13.9502 13.0339 13.9971 13.1471 14.0908 13.2383C14.1846 13.3294 14.2992 13.375 14.4346 13.375H17.4268ZM17.7705 15.8477C17.6768 15.9388 17.5622 15.9844 17.4268 15.9844H14.4346C14.2992 15.9844 14.1846 15.9388 14.0908 15.8477C13.9971 15.7565 13.9502 15.6458 13.9502 15.5156C13.9502 15.3802 13.9971 15.2656 14.0908 15.1719C14.1846 15.0781 14.2992 15.0312 14.4346 15.0312H17.4268C17.5622 15.0312 17.6768 15.0781 17.7705 15.1719C17.8643 15.2656 17.9111 15.3802 17.9111 15.5156C17.9111 15.6458 17.8643 15.7565 17.7705 15.8477Z" fill="white"/>
</svg>
