<svg width="24" height="24" viewBox="0 0 24 24" fill="none" xmlns="http://www.w3.org/2000/svg">
<path d="M12.4009 6.20605C12.5923 6.20605 12.7495 6.26644 12.8726 6.38721C12.9956 6.50798 13.0571 6.66634 13.0571 6.8623V15.0928L13.005 16.4789L14.8003 14.4912L16.2769 13.042C16.3361 12.9827 16.4056 12.9372 16.4854 12.9053C16.5651 12.8734 16.6506 12.8574 16.7417 12.8574C16.9194 12.8574 17.0687 12.9178 17.1895 13.0386C17.3102 13.1593 17.3706 13.3109 17.3706 13.4932C17.3706 13.6663 17.3022 13.8236 17.1655 13.9648L12.8931 18.2441C12.8247 18.3171 12.7484 18.3717 12.6641 18.4082C12.5798 18.4447 12.492 18.4629 12.4009 18.4629C12.3143 18.4629 12.2288 18.4447 12.1445 18.4082C12.0602 18.3717 11.9839 18.3171 11.9155 18.2441L7.64307 13.9648C7.50635 13.8236 7.43799 13.6663 7.43799 13.4932C7.43799 13.3109 7.49723 13.1593 7.61572 13.0386C7.73421 12.9178 7.8846 12.8574 8.06689 12.8574C8.15804 12.8574 8.24349 12.8734 8.32324 12.9053C8.40299 12.9372 8.47249 12.9827 8.53174 13.042L10.0015 14.4912L11.803 16.4929L11.7515 15.0928V6.8623C11.7515 6.66634 11.8118 6.50798 11.9326 6.38721C12.0534 6.26644 12.2095 6.20605 12.4009 6.20605Z" fill="white"/>
</svg>
