<svg width="24" height="24" viewBox="0 0 24 24" fill="none" xmlns="http://www.w3.org/2000/svg">
<path fill-rule="evenodd" clip-rule="evenodd" d="M17.8906 19.3594C17.7656 19.4844 17.612 19.5469 17.4297 19.5469H7.83594C7.0651 19.5469 6.48307 19.3503 6.08984 18.957C5.69661 18.5638 5.5 17.9766 5.5 17.1953V6C5.5 5.21354 5.69792 4.61979 6.09375 4.21875C6.48958 3.81771 7.07552 3.61719 7.85156 3.61719H15.7188C16.5 3.61719 17.0872 3.81771 17.4805 4.21875C17.8737 4.61979 18.0703 5.21354 18.0703 6V14.3203C18.0703 14.5651 18.0417 14.7747 17.9844 14.9492C17.9271 15.1237 17.849 15.2721 17.75 15.3945C17.651 15.5169 17.5443 15.6302 17.4297 15.7344C17.1224 16.0365 16.9336 16.3581 16.8633 16.6992C16.793 17.0404 16.8242 17.3529 16.957 17.6367C17.0898 17.9206 17.3099 18.1276 17.6172 18.2578C17.7422 18.3099 17.8503 18.3932 17.9414 18.5078C18.0326 18.6224 18.0781 18.7526 18.0781 18.8984C18.0781 19.0807 18.0156 19.2344 17.8906 19.3594ZM15.6172 4.96875L8.72654 4.96906V14.7111L16.125 14.7109C16.5312 14.7109 16.7344 14.5156 16.7344 14.125V6.0625C16.7344 5.70833 16.6419 5.4375 16.457 5.25C16.2721 5.0625 15.9922 4.96875 15.6172 4.96875ZM6.84375 14.9922V6.0625C6.84375 5.70833 6.9362 5.4375 7.12109 5.25C7.25316 5.11607 7.43107 5.02997 7.65482 4.99171L7.71054 4.98506V14.7271L7.56771 14.7422C7.5 14.7526 7.43446 14.7656 7.37109 14.7812C7.18099 14.8281 7.00521 14.8984 6.84375 14.9922ZM14.9805 12.5703C14.8893 12.6589 14.7682 12.7031 14.6172 12.7031C14.3568 12.7031 14.1797 12.5547 14.0859 12.2578L13.6875 11.0703H11.5938L11.1875 12.2578C11.099 12.5547 10.9245 12.7031 10.6641 12.7031C10.513 12.7031 10.3919 12.6589 10.3008 12.5703C10.2096 12.4818 10.1641 12.3672 10.1641 12.2266C10.1641 12.1328 10.1875 12.0182 10.2344 11.8828L11.8672 7.46094C12.0026 7.08594 12.2578 6.89844 12.6328 6.89844C13.0234 6.89844 13.2865 7.08594 13.4219 7.46094L15.0469 11.8828C15.0938 12.0182 15.1172 12.1328 15.1172 12.2266C15.1172 12.3672 15.0716 12.4818 14.9805 12.5703ZM13.4375 10.2656H11.8438L12.6094 7.99219H12.6719L13.4375 10.2656ZM7.97656 18.25H15.8438C15.6458 17.9271 15.5365 17.5651 15.5156 17.1641C15.4948 16.763 15.5755 16.3698 15.7578 15.9844C15.7161 15.9896 15.6758 15.9948 15.6367 16C15.5977 16.0052 15.5547 16.0078 15.5078 16.0078H8.03125C7.65104 16.0078 7.35156 16.1107 7.13281 16.3164C6.91406 16.5221 6.80469 16.7891 6.80469 17.1172C6.80469 17.4714 6.90234 17.7487 7.09766 17.9492C7.29297 18.1497 7.58594 18.25 7.97656 18.25Z" fill="white"/>
</svg>
