<svg width="24" height="24" viewBox="0 0 24 24" fill="none" xmlns="http://www.w3.org/2000/svg">
<path fill-rule="evenodd" clip-rule="evenodd" d="M14.9453 19.0898C14.0286 19.4883 13.0495 19.6875 12.0078 19.6875C10.9714 19.6875 9.99479 19.4883 9.07812 19.0898C8.16146 18.6914 7.35417 18.1432 6.65625 17.4453C5.95833 16.7474 5.41016 15.9414 5.01172 15.0273C4.61328 14.1133 4.41406 13.1354 4.41406 12.0938C4.41406 11.0521 4.61198 10.0742 5.00781 9.16016C5.40365 8.24609 5.95182 7.4388 6.65234 6.73828C7.35286 6.03776 8.16146 5.48958 9.07812 5.09375C9.99479 4.69792 10.9688 4.5 12 4.5C13.0417 4.5 14.0208 4.69792 14.9375 5.09375C15.8542 5.48958 16.6628 6.03776 17.3633 6.73828C18.0638 7.4388 18.612 8.24609 19.0078 9.16016C19.4036 10.0742 19.6016 11.0521 19.6016 12.0938C19.6016 13.1354 19.4036 14.1133 19.0078 15.0273C18.612 15.9414 18.0651 16.7474 17.3672 17.4453C16.6693 18.1432 15.862 18.6914 14.9453 19.0898ZM9.60156 17.8086C10.3516 18.1289 11.1536 18.2891 12.0078 18.2891C12.8724 18.2891 13.6797 18.1289 14.4297 17.8086C15.1797 17.4883 15.8359 17.0456 16.3984 16.4805C16.9609 15.9154 17.4036 15.2578 17.7266 14.5078C18.0495 13.7578 18.2083 12.9531 18.2031 12.0938C18.2031 11.2396 18.043 10.4375 17.7227 9.6875C17.4023 8.9375 16.9583 8.27865 16.3906 7.71094C15.8229 7.14323 15.1654 6.69922 14.418 6.37891C13.6706 6.05859 12.8646 5.89844 12 5.89844C11.1458 5.89844 10.3451 6.05859 9.59766 6.37891C8.85026 6.69922 8.19401 7.14323 7.62891 7.71094C7.0638 8.27865 6.6224 8.9375 6.30469 9.6875C5.98698 10.4375 5.82812 11.2396 5.82812 12.0938C5.82812 12.9531 5.98698 13.7578 6.30469 14.5078C6.6224 15.2578 7.0638 15.9154 7.62891 16.4805C8.19401 17.0456 8.85156 17.4883 9.60156 17.8086ZM11.9531 9.53906C12.2292 9.53906 12.4622 9.44141 12.6523 9.24609C12.8424 9.05078 12.9375 8.81771 12.9375 8.54688C12.9375 8.26562 12.8424 8.02865 12.6523 7.83594C12.4622 7.64323 12.2292 7.54688 11.9531 7.54688C11.6823 7.54688 11.4505 7.64323 11.2578 7.83594C11.0651 8.02865 10.9688 8.26562 10.9688 8.54688C10.9688 8.81771 11.0651 9.05078 11.2578 9.24609C11.4505 9.44141 11.6823 9.53906 11.9531 9.53906ZM14.1172 15.9844C14.0078 16.0885 13.8724 16.1406 13.7109 16.1406H10.7109C10.5495 16.1406 10.4141 16.0885 10.3047 15.9844C10.1953 15.8802 10.1406 15.7474 10.1406 15.5859C10.1406 15.4297 10.1953 15.2995 10.3047 15.1953C10.4141 15.0911 10.5495 15.0391 10.7109 15.0391H11.6016V11.8203H10.8359C10.6797 11.8203 10.5456 11.7682 10.4336 11.6641C10.3216 11.5599 10.2656 11.4271 10.2656 11.2656C10.2656 11.1094 10.3216 10.9792 10.4336 10.875C10.5456 10.7708 10.6797 10.7188 10.8359 10.7188H12.2344C12.4375 10.7188 12.5911 10.7839 12.6953 10.9141C12.7995 11.0443 12.8516 11.2135 12.8516 11.4219V15.0391H13.7109C13.8724 15.0391 14.0078 15.0911 14.1172 15.1953C14.2266 15.2995 14.2812 15.4297 14.2812 15.5859C14.2812 15.7474 14.2266 15.8802 14.1172 15.9844Z" fill="white"/>
</svg>
