<svg width="24" height="24" viewBox="0 0 24 24" fill="none" xmlns="http://www.w3.org/2000/svg">
<path fill-rule="evenodd" clip-rule="evenodd" d="M12.6328 6.06641C12.4557 6.24089 12.2448 6.32812 12 6.32812C11.7552 6.32812 11.5443 6.24089 11.3672 6.06641C11.1901 5.89193 11.1016 5.67969 11.1016 5.42969C11.1016 5.1849 11.1888 4.97526 11.3633 4.80078C11.5378 4.6263 11.75 4.53906 12 4.53906C12.25 4.53906 12.4622 4.6276 12.6367 4.80469C12.8112 4.98177 12.8984 5.1901 12.8984 5.42969C12.8984 5.67969 12.8099 5.89193 12.6328 6.06641ZM17.2891 8C17.1172 8.17188 16.9062 8.25781 16.6562 8.25781C16.4062 8.25781 16.1953 8.17188 16.0234 8C15.8464 7.82812 15.7578 7.61719 15.7578 7.36719C15.7578 7.11719 15.8464 6.90625 16.0234 6.73438C16.2005 6.55208 16.4128 6.46094 16.6602 6.46094C16.9076 6.46094 17.1172 6.55208 17.2891 6.73438C17.4661 6.90625 17.5547 7.11589 17.5547 7.36328C17.5547 7.61068 17.4661 7.82292 17.2891 8ZM7.33203 8.26562C7.57943 8.26562 7.79167 8.17969 7.96875 8.00781C8.15104 7.82552 8.24219 7.61198 8.24219 7.36719C8.24219 7.1224 8.15104 6.91406 7.96875 6.74219C7.79167 6.5651 7.58073 6.47656 7.33594 6.47656C7.09115 6.47656 6.88021 6.5651 6.70312 6.74219C6.53125 6.91406 6.44531 7.1237 6.44531 7.37109C6.44531 7.61849 6.53125 7.83073 6.70312 8.00781C6.875 8.17969 7.08464 8.26562 7.33203 8.26562ZM13.4727 15.5547C13.0117 15.7526 12.5208 15.8516 12 15.8516C11.474 15.8516 10.9818 15.7526 10.5234 15.5547C10.0651 15.3568 9.66016 15.0807 9.30859 14.7266C8.95703 14.3724 8.68099 13.9661 8.48047 13.5078C8.27995 13.0495 8.17969 12.5573 8.17969 12.0312C8.17969 11.5104 8.27995 11.0195 8.48047 10.5586C8.68099 10.0977 8.95703 9.69141 9.30859 9.33984C9.66016 8.98828 10.0651 8.71224 10.5234 8.51172C10.9818 8.3112 11.474 8.21094 12 8.21094C12.5208 8.21094 13.0117 8.3112 13.4727 8.51172C13.9336 8.71224 14.3398 8.98828 14.6914 9.33984C15.043 9.69141 15.319 10.0977 15.5195 10.5586C15.7201 11.0195 15.8203 11.5104 15.8203 12.0312C15.8203 12.5573 15.7201 13.0495 15.5195 13.5078C15.319 13.9661 15.043 14.3724 14.6914 14.7266C14.3398 15.0807 13.9336 15.3568 13.4727 15.5547ZM12 14.5859C11.5365 14.5859 11.1107 14.4701 10.7227 14.2383C10.3346 14.0065 10.0247 13.6979 9.79297 13.3125C9.5612 12.9271 9.44531 12.5 9.44531 12.0312C9.44531 11.5677 9.5612 11.1432 9.79297 10.7578C10.0247 10.3724 10.3346 10.0625 10.7227 9.82812C11.1107 9.59375 11.5365 9.47656 12 9.47656C12.4688 9.47656 12.8958 9.59245 13.2812 9.82422C13.6667 10.056 13.9753 10.3659 14.207 10.7539C14.4388 11.1419 14.5547 11.5677 14.5547 12.0312C14.5547 12.5 14.4388 12.9271 14.207 13.3125C13.9753 13.6979 13.6667 14.0065 13.2812 14.2383C12.8958 14.4701 12.4688 14.5859 12 14.5859ZM6.04688 12.6562C5.86979 12.8333 5.65885 12.9219 5.41406 12.9219C5.16927 12.9219 4.95833 12.8346 4.78125 12.6602C4.60417 12.4857 4.51562 12.2734 4.51562 12.0234C4.51562 11.7786 4.60286 11.569 4.77734 11.3945C4.95182 11.2201 5.16406 11.1328 5.41406 11.1328C5.66406 11.1328 5.8763 11.2201 6.05078 11.3945C6.22526 11.569 6.3125 11.7786 6.3125 12.0234C6.3125 12.2682 6.22396 12.4792 6.04688 12.6562ZM18.5859 12.9688C18.8359 12.9688 19.0482 12.8828 19.2227 12.7109C19.3971 12.5391 19.4844 12.3255 19.4844 12.0703C19.4844 11.8255 19.3958 11.6146 19.2188 11.4375C19.0417 11.2604 18.8307 11.1719 18.5859 11.1719C18.3411 11.1719 18.1302 11.2604 17.9531 11.4375C17.776 11.6146 17.6875 11.8255 17.6875 12.0703C17.6875 12.3203 17.776 12.5326 17.9531 12.707C18.1302 12.8815 18.3411 12.9688 18.5859 12.9688ZM7.97656 17.3047C7.79948 17.487 7.58854 17.5781 7.34375 17.5781C7.09896 17.5781 6.88802 17.487 6.71094 17.3047C6.52865 17.1328 6.4375 16.9232 6.4375 16.6758C6.4375 16.4284 6.52865 16.2188 6.71094 16.0469C6.88281 15.8698 7.09245 15.7812 7.33984 15.7812C7.58724 15.7812 7.79948 15.8698 7.97656 16.0469C8.14844 16.2188 8.23438 16.4284 8.23438 16.6758C8.23438 16.9232 8.14844 17.1328 7.97656 17.3047ZM16.6172 17.6094C16.862 17.6094 17.0729 17.5234 17.25 17.3516C17.4271 17.1745 17.5156 16.9622 17.5156 16.7148C17.5156 16.4674 17.4271 16.2552 17.25 16.0781C17.0729 15.901 16.862 15.8125 16.6172 15.8125C16.3724 15.8125 16.1615 15.901 15.9844 16.0781C15.8073 16.2552 15.7188 16.4674 15.7188 16.7148C15.7188 16.9622 15.8073 17.1745 15.9844 17.3516C16.1615 17.5234 16.3724 17.6094 16.6172 17.6094ZM12.6367 19.2383C12.4622 19.4128 12.25 19.5 12 19.5C11.75 19.5 11.5378 19.4128 11.3633 19.2383C11.1888 19.0638 11.1016 18.8516 11.1016 18.6016C11.1016 18.3568 11.1901 18.1471 11.3672 17.9727C11.5443 17.7982 11.7552 17.7109 12 17.7109C12.2448 17.7109 12.4557 17.7982 12.6328 17.9727C12.8099 18.1471 12.8984 18.3568 12.8984 18.6016C12.8984 18.8516 12.8112 19.0638 12.6367 19.2383Z" fill="white"/>
</svg>
