<svg width="24" height="24" viewBox="0 0 24 24" fill="none" xmlns="http://www.w3.org/2000/svg">
<path fill-rule="evenodd" clip-rule="evenodd" d="M8.5 19.8516C8.69792 19.8516 8.88021 19.8008 9.04688 19.6992C9.21354 19.5977 9.41667 19.4401 9.65625 19.2266L12.2031 16.9688H16.7891C17.5234 16.9688 18.1458 16.8346 18.6562 16.5664C19.1667 16.2982 19.5547 15.9089 19.8203 15.3984C20.0859 14.888 20.2188 14.2682 20.2188 13.5391V7.83594C20.2188 7.10677 20.0859 6.48698 19.8203 5.97656C19.5547 5.46615 19.1667 5.07552 18.6562 4.80469C18.1458 4.53385 17.5234 4.39844 16.7891 4.39844H7.3125C6.58333 4.39844 5.96354 4.53255 5.45312 4.80078C4.94271 5.06901 4.55339 5.45964 4.28516 5.97266C4.01693 6.48568 3.88281 7.10677 3.88281 7.83594V13.5391C3.88281 14.2682 4.01693 14.8893 4.28516 15.4023C4.55339 15.9154 4.94141 16.3047 5.44922 16.5703C5.95703 16.8359 6.57031 16.9688 7.28906 16.9688H7.61719V18.8438C7.61719 19.151 7.69401 19.3958 7.84766 19.5781C8.0013 19.7604 8.21875 19.8516 8.5 19.8516ZM8.83594 18.3359V16.2188C8.83594 16.0104 8.78906 15.8607 8.69531 15.7695C8.60156 15.6784 8.45312 15.6328 8.25 15.6328H7.34375C6.625 15.6328 6.09245 15.4531 5.74609 15.0938C5.39974 14.7344 5.22656 14.2083 5.22656 13.5156V7.85938C5.22656 7.16667 5.39974 6.64193 5.74609 6.28516C6.09245 5.92839 6.625 5.75 7.34375 5.75H16.7578C17.4766 5.75 18.0091 5.92839 18.3555 6.28516C18.7018 6.64193 18.875 7.16667 18.875 7.85938V13.5156C18.875 14.2083 18.7018 14.7344 18.3555 15.0938C18.0091 15.4531 17.4766 15.6328 16.7578 15.6328H12.1328C11.9141 15.6328 11.7396 15.6576 11.6094 15.707C11.4792 15.7565 11.3385 15.8568 11.1875 16.0078L8.83594 18.3359ZM10.6719 11.4141C10.5833 11.5026 10.4766 11.5469 10.3516 11.5469H7.41406C7.29427 11.5469 7.1901 11.5026 7.10156 11.4141C7.01302 11.3255 6.96875 11.2188 6.96875 11.0938C6.96875 10.9688 7.01302 10.8607 7.10156 10.7695C7.1901 10.6784 7.29427 10.6328 7.41406 10.6328H10.3516C10.4766 10.6328 10.5833 10.6784 10.6719 10.7695C10.7604 10.8607 10.8047 10.9688 10.8047 11.0938C10.8047 11.2188 10.7604 11.3255 10.6719 11.4141ZM16.6953 11.5469C16.8203 11.5469 16.9258 11.5026 17.0117 11.4141C17.0977 11.3255 17.1406 11.2188 17.1406 11.0938C17.1406 10.9688 17.0977 10.8607 17.0117 10.7695C16.9258 10.6784 16.8203 10.6328 16.6953 10.6328H11.8906C11.7656 10.6328 11.6589 10.6784 11.5703 10.7695C11.4818 10.8607 11.4375 10.9688 11.4375 11.0938C11.4375 11.2188 11.4818 11.3255 11.5703 11.4141C11.6589 11.5026 11.7656 11.5469 11.8906 11.5469H16.6953ZM8.96875 13.3594C8.88021 13.4479 8.77344 13.4922 8.64844 13.4922H7.41406C7.29427 13.4922 7.1901 13.4479 7.10156 13.3594C7.01302 13.2708 6.96875 13.1615 6.96875 13.0312C6.96875 12.9062 7.01302 12.7995 7.10156 12.7109C7.1901 12.6224 7.29427 12.5781 7.41406 12.5781H8.64844C8.77344 12.5781 8.88021 12.6224 8.96875 12.7109C9.05729 12.7995 9.10156 12.9062 9.10156 13.0312C9.10156 13.1615 9.05729 13.2708 8.96875 13.3594ZM13.8047 13.4922C13.9245 13.4922 14.0286 13.4479 14.1172 13.3594C14.2057 13.2708 14.25 13.1615 14.25 13.0312C14.25 12.9062 14.2057 12.7995 14.1172 12.7109C14.0286 12.6224 13.9245 12.5781 13.8047 12.5781H10.1797C10.0599 12.5781 9.95573 12.6224 9.86719 12.7109C9.77865 12.7995 9.73438 12.9062 9.73438 13.0312C9.73438 13.1615 9.77865 13.2708 9.86719 13.3594C9.95573 13.4479 10.0599 13.4922 10.1797 13.4922H13.8047ZM17.0117 13.3594C16.9258 13.4479 16.8203 13.4922 16.6953 13.4922H15.3359C15.2109 13.4922 15.1055 13.4479 15.0195 13.3594C14.9336 13.2708 14.8906 13.1615 14.8906 13.0312C14.8906 12.9062 14.9336 12.7995 15.0195 12.7109C15.1055 12.6224 15.2109 12.5781 15.3359 12.5781H16.6953C16.8203 12.5781 16.9258 12.6224 17.0117 12.7109C17.0977 12.7995 17.1406 12.9062 17.1406 13.0312C17.1406 13.1615 17.0977 13.2708 17.0117 13.3594Z" fill="white"/>
</svg>
