<svg width="24" height="24" viewBox="0 0 24 24" fill="none" xmlns="http://www.w3.org/2000/svg">
<path fill-rule="evenodd" clip-rule="evenodd" d="M12 20C12.5417 20 13.0221 19.875 13.4414 19.625C13.8607 19.375 14.1927 19.0443 14.4375 18.6328C14.6473 18.2801 14.773 17.9045 14.8144 17.5059L14.8265 17.3203H17.9062C18.2708 17.3203 18.5586 17.2305 18.7695 17.0508C18.9805 16.8711 19.0859 16.6328 19.0859 16.3359C19.0859 15.9505 18.9362 15.5872 18.6367 15.2461C18.3372 14.9049 18.0234 14.5703 17.6953 14.2422C17.5234 14.0755 17.3906 13.8568 17.2969 13.5859C17.2031 13.3151 17.1328 13.0208 17.0859 12.7031C17.0391 12.3854 17.0052 12.0677 16.9844 11.75C16.9531 10.8073 16.8398 9.97135 16.6445 9.24219C16.4492 8.51302 16.1497 7.90495 15.7461 7.41797C15.3424 6.93099 14.8151 6.57031 14.1641 6.33594C14.0339 5.84635 13.7773 5.4362 13.3945 5.10547C13.0117 4.77474 12.5469 4.60938 12 4.60938C11.4479 4.60938 10.9805 4.77474 10.5977 5.10547C10.2148 5.4362 9.95833 5.84635 9.82812 6.33594C9.17708 6.57031 8.64974 6.93099 8.24609 7.41797C7.84245 7.90495 7.54167 8.51302 7.34375 9.24219C7.14583 9.97135 7.03385 10.8073 7.00781 11.75C6.98177 12.0677 6.94661 12.3854 6.90234 12.7031C6.85807 13.0208 6.78906 13.3151 6.69531 13.5859C6.60156 13.8568 6.46875 14.0755 6.29688 14.2422C5.96875 14.5703 5.65495 14.9049 5.35547 15.2461C5.05599 15.5872 4.90625 15.9505 4.90625 16.3359C4.90625 16.6328 5.01172 16.8711 5.22266 17.0508C5.43359 17.2305 5.72135 17.3203 6.08594 17.3203H9.16453L9.17985 17.5058C9.22513 17.9041 9.35268 18.2785 9.5625 18.6289C9.80729 19.0378 10.138 19.3685 10.5547 19.6211C10.9714 19.8737 11.4531 20 12 20ZM17.4453 16.0625H6.53125V15.9688C6.59375 15.901 6.67708 15.8125 6.78125 15.7031C6.88542 15.5938 7.0026 15.4727 7.13281 15.3398C7.26302 15.207 7.38802 15.0677 7.50781 14.9219C7.63802 14.7708 7.7526 14.5964 7.85156 14.3984C7.95052 14.2005 8.03255 13.9753 8.09766 13.7227C8.16276 13.4701 8.21484 13.1914 8.25391 12.8867C8.29297 12.582 8.32292 12.2526 8.34375 11.8984C8.36458 10.8672 8.47656 10.0482 8.67969 9.44141C8.88281 8.83464 9.14714 8.38151 9.47266 8.08203C9.79818 7.78255 10.1667 7.57552 10.5781 7.46094C10.6667 7.4401 10.7357 7.40495 10.7852 7.35547C10.8346 7.30599 10.8646 7.23177 10.875 7.13281C10.8906 6.7526 10.9974 6.44531 11.1953 6.21094C11.3932 5.97656 11.6615 5.85938 12 5.85938C12.3333 5.85938 12.599 5.97656 12.7969 6.21094C12.9948 6.44531 13.1016 6.7526 13.1172 7.13281C13.1276 7.23177 13.1576 7.30599 13.207 7.35547C13.2565 7.40495 13.3255 7.4401 13.4141 7.46094C13.8255 7.57552 14.194 7.78255 14.5195 8.08203C14.8451 8.38151 15.1081 8.83464 15.3086 9.44141C15.5091 10.0482 15.625 10.8672 15.6562 11.8984C15.6667 12.2526 15.6927 12.582 15.7344 12.8867C15.776 13.1914 15.8307 13.4701 15.8984 13.7227C15.9661 13.9753 16.0482 14.2005 16.1445 14.3984C16.2409 14.5964 16.3516 14.7708 16.4766 14.9219C16.6016 15.0677 16.7292 15.207 16.8594 15.3398C16.9896 15.4727 17.1055 15.5938 17.207 15.7031C17.3086 15.8125 17.388 15.901 17.4453 15.9688V16.0625ZM10.9219 18.457C11.2031 18.7409 11.5625 18.8828 12 18.8828C12.4323 18.8828 12.7891 18.7409 13.0703 18.457C13.3164 18.2087 13.4648 17.8835 13.5155 17.4816L13.5295 17.3203H10.4615L10.4767 17.4816C10.5274 17.8835 10.6758 18.2087 10.9219 18.457Z" fill="white"/>
</svg>
