<svg width="24" height="24" viewBox="0 0 24 24" fill="none" xmlns="http://www.w3.org/2000/svg">
<path fill-rule="evenodd" clip-rule="evenodd" d="M19.7358 18.4219C19.3426 18.8073 18.7554 19 17.9741 19H12.0001H6.02881C5.25277 19 4.66683 18.8073 4.271 18.4219C3.87516 18.0365 3.67725 17.4583 3.67725 16.6875V9.46875C3.67725 8.69271 3.87516 8.11198 4.271 7.72656C4.66683 7.34115 5.25277 7.14844 6.02881 7.14844L7.63811 7.14869L7.63818 6.38281C7.63818 5.83073 7.80485 5.39714 8.13818 5.08203C8.47152 4.76693 8.93506 4.60938 9.52881 4.60938H14.4741C15.0679 4.60938 15.534 4.76693 15.8726 5.08203C16.2111 5.39714 16.3804 5.83073 16.3804 6.38281L16.3801 7.14869L17.9741 7.14844C18.7554 7.14844 19.3426 7.34115 19.7358 7.72656C20.1291 8.11198 20.3257 8.69271 20.3257 9.46875V16.6875C20.3257 17.4583 20.1291 18.0365 19.7358 18.4219ZM8.91911 7.14869H15.0911L15.0913 6.45312C15.0913 6.25521 15.0275 6.09635 14.8999 5.97656C14.7723 5.85677 14.6017 5.79688 14.3882 5.79688H9.62256C9.40902 5.79688 9.23844 5.85677 9.11084 5.97656C8.98324 6.09635 8.91943 6.25521 8.91943 6.45312L8.91911 7.14869ZM12.0054 11.5391C10.5835 11.5391 9.22933 11.4284 7.94287 11.207C7.02397 11.0489 6.14892 10.8357 5.31771 10.5673L5.02011 10.4667L5.021 9.52344C5.021 9.16406 5.10954 8.89583 5.28662 8.71875C5.4637 8.54167 5.72412 8.45312 6.06787 8.45312H17.9429C18.2814 8.45312 18.5392 8.54167 18.7163 8.71875C18.8934 8.89583 18.9819 9.16406 18.9819 9.52344L18.9811 10.4667L18.6852 10.5673C17.854 10.8357 16.979 11.0489 16.0601 11.207C14.7736 11.4284 13.422 11.5391 12.0054 11.5391ZM5.28662 17.4297C5.4637 17.6068 5.72412 17.6953 6.06787 17.6953H17.9429C18.2814 17.6953 18.5392 17.6068 18.7163 17.4297C18.8934 17.2526 18.9819 16.987 18.9819 16.6328L18.9811 11.8057L18.6619 11.9013C17.8143 12.1442 16.93 12.3372 16.0093 12.4805C15.3647 12.5807 14.7088 12.6559 14.0415 12.7061L14.0131 12.7087L14.0132 13.2969C14.0132 13.8594 13.7267 14.1406 13.1538 14.1406H10.8491C10.2762 14.1406 9.98975 13.8594 9.98975 13.2969L9.98911 12.7077L9.96826 12.7061C9.30029 12.6559 8.64339 12.5807 7.99756 12.4805C7.07494 12.3372 6.18952 12.1442 5.34131 11.9013L5.02011 11.8047L5.021 16.6328C5.021 16.987 5.10954 17.2526 5.28662 17.4297Z" fill="white"/>
</svg>
