<svg width="24" height="24" viewBox="0 0 24 24" fill="none" xmlns="http://www.w3.org/2000/svg">
<path fill-rule="evenodd" clip-rule="evenodd" d="M16.0234 11.7734C16.612 11.7734 17.1497 11.6172 17.6367 11.3047C18.1237 10.9922 18.513 10.5716 18.8047 10.043C19.0964 9.51432 19.2422 8.92708 19.2422 8.28125C19.2422 7.65104 19.0977 7.07812 18.8086 6.5625C18.5195 6.04688 18.1315 5.63802 17.6445 5.33594C17.1576 5.03385 16.6172 4.88281 16.0234 4.88281C15.4349 4.88281 14.8971 5.03646 14.4102 5.34375C13.9232 5.65104 13.5339 6.0638 13.2422 6.58203C12.9505 7.10026 12.8047 7.67188 12.8047 8.29688C12.8099 8.9375 12.957 9.52214 13.2461 10.0508C13.5352 10.5794 13.9232 10.9987 14.4102 11.3086C14.8971 11.6185 15.4349 11.7734 16.0234 11.7734ZM7.48438 11.9453C7.99479 11.9453 8.46354 11.8073 8.89062 11.5312C9.31771 11.2552 9.65625 10.8841 9.90625 10.418C10.1562 9.95182 10.2812 9.4375 10.2812 8.875C10.2812 8.32812 10.1549 7.82812 9.90234 7.375C9.64974 6.92188 9.3125 6.5612 8.89062 6.29297C8.46875 6.02474 8 5.89062 7.48438 5.89062C6.96875 5.89062 6.5 6.02604 6.07812 6.29688C5.65625 6.56771 5.31901 6.93099 5.06641 7.38672C4.8138 7.84245 4.6875 8.34375 4.6875 8.89062C4.6875 9.45312 4.8151 9.96615 5.07031 10.4297C5.32552 10.8932 5.66276 11.2617 6.08203 11.5352C6.5013 11.8086 6.96875 11.9453 7.48438 11.9453ZM15.0586 10.2695C15.3529 10.4701 15.6745 10.5703 16.0234 10.5703C16.3776 10.5703 16.7005 10.4688 16.9922 10.2656C17.2839 10.0625 17.5182 9.78776 17.6953 9.44141C17.8724 9.09505 17.9609 8.70833 17.9609 8.28125C17.9609 7.86979 17.8737 7.4987 17.6992 7.16797C17.5247 6.83724 17.2917 6.57552 17 6.38281C16.7083 6.1901 16.3828 6.09375 16.0234 6.09375C15.6693 6.09375 15.3451 6.19141 15.0508 6.38672C14.7565 6.58203 14.5221 6.84635 14.3477 7.17969C14.1732 7.51302 14.0859 7.88542 14.0859 8.29688C14.0859 8.72396 14.1745 9.10938 14.3516 9.45312C14.5286 9.79688 14.7643 10.069 15.0586 10.2695ZM7.48438 10.7578C7.19271 10.7578 6.92578 10.6732 6.68359 10.5039C6.44141 10.3346 6.2474 10.1094 6.10156 9.82812C5.95573 9.54688 5.88281 9.23438 5.88281 8.89062C5.88281 8.55729 5.95443 8.25391 6.09766 7.98047C6.24089 7.70703 6.4349 7.48828 6.67969 7.32422C6.92448 7.16016 7.19271 7.07812 7.48438 7.07812C7.77604 7.07812 8.04557 7.15885 8.29297 7.32031C8.54036 7.48177 8.73568 7.69792 8.87891 7.96875C9.02214 8.23958 9.09375 8.54167 9.09375 8.875C9.09375 9.22396 9.02083 9.54036 8.875 9.82422C8.72917 10.1081 8.53385 10.3346 8.28906 10.5039C8.04427 10.6732 7.77604 10.7578 7.48438 10.7578ZM8.70312 18.2383C8.81771 18.4596 8.97135 18.625 9.16406 18.7344H3.39062C2.875 18.7344 2.48828 18.6263 2.23047 18.4102C1.97266 18.194 1.84375 17.8724 1.84375 17.4453C1.84375 16.8307 1.98958 16.2435 2.28125 15.6836C2.57292 15.1237 2.97656 14.6224 3.49219 14.1797C4.00781 13.737 4.60547 13.388 5.28516 13.1328C5.96484 12.8776 6.69531 12.75 7.47656 12.75C7.8724 12.75 8.26172 12.7852 8.64453 12.8555C9.02734 12.9258 9.39714 13.0286 9.75391 13.1641C10.1107 13.2995 10.4479 13.4661 10.7656 13.6641C10.5781 13.7891 10.4102 13.9232 10.2617 14.0664C10.1133 14.2096 9.97656 14.3646 9.85156 14.5312C9.63281 14.4062 9.39453 14.2982 9.13672 14.207C8.87891 14.1159 8.61068 14.0469 8.33203 14C8.05339 13.9531 7.76823 13.9297 7.47656 13.9297C6.88281 13.9297 6.32031 14.0247 5.78906 14.2148C5.25781 14.4049 4.78776 14.6602 4.37891 14.9805C3.97005 15.3008 3.64844 15.6654 3.41406 16.0742C3.17969 16.4831 3.0625 16.9089 3.0625 17.3516C3.0625 17.4193 3.08073 17.4688 3.11719 17.5C3.15365 17.5312 3.20573 17.5469 3.27344 17.5469H8.5625C8.54167 17.7865 8.58854 18.0169 8.70312 18.2383ZM20.6406 18.7266C21.8802 18.7266 22.5 18.3177 22.5 17.5C22.5 17 22.3503 16.4766 22.0508 15.9297C21.7513 15.3828 21.319 14.8685 20.7539 14.3867C20.1888 13.9049 19.5078 13.513 18.7109 13.2109C17.9141 12.9089 17.0182 12.7578 16.0234 12.7578C15.0234 12.7578 14.125 12.9089 13.3281 13.2109C12.5312 13.513 11.8503 13.9049 11.2852 14.3867C10.7201 14.8685 10.2878 15.3828 9.98828 15.9297C9.6888 16.4766 9.53906 17 9.53906 17.5C9.53906 18.3177 10.1562 18.7266 11.3906 18.7266H20.6406ZM11.1094 17.5156H20.9297C21.0234 17.5156 21.0898 17.5013 21.1289 17.4727C21.168 17.444 21.1875 17.3932 21.1875 17.3203C21.1875 17.0339 21.0729 16.6992 20.8438 16.3164C20.6146 15.9336 20.2812 15.5651 19.8438 15.2109C19.4062 14.8568 18.8659 14.5612 18.2227 14.3242C17.5794 14.0872 16.8464 13.9688 16.0234 13.9688C15.1953 13.9688 14.4596 14.0872 13.8164 14.3242C13.1732 14.5612 12.6315 14.8568 12.1914 15.2109C11.7513 15.5651 11.418 15.9336 11.1914 16.3164C10.9648 16.6992 10.8516 17.0339 10.8516 17.3203C10.8516 17.3932 10.8724 17.444 10.9141 17.4727C10.9557 17.5013 11.0208 17.5156 11.1094 17.5156Z" fill="white"/>
</svg>
