<svg width="24" height="24" viewBox="0 0 24 24" fill="none" xmlns="http://www.w3.org/2000/svg">
<path fill-rule="evenodd" clip-rule="evenodd" d="M12.1323 20.8828C12.4084 20.8828 12.6453 20.7773 12.8433 20.5664C13.0412 20.3555 13.2078 20.0729 13.3433 19.7188L18.2104 7.00781C18.2782 6.84115 18.3289 6.68359 18.3628 6.53516C18.3966 6.38672 18.4136 6.2526 18.4136 6.13281C18.4136 5.8776 18.3394 5.67578 18.1909 5.52734C18.0425 5.37891 17.8407 5.30469 17.5854 5.30469C17.4604 5.30469 17.325 5.32292 17.1792 5.35938C17.0334 5.39583 16.8771 5.44531 16.7104 5.50781L3.94482 10.3984C3.62712 10.5182 3.36279 10.6758 3.15186 10.8711C2.94092 11.0664 2.83545 11.3047 2.83545 11.5859C2.83545 11.9297 2.95264 12.1823 3.18701 12.3438C3.42139 12.5052 3.71826 12.6406 4.07764 12.75L9.40576 14.3125L10.9526 19.5859C11.0672 19.9609 11.2052 20.2708 11.3667 20.5156C11.5282 20.7604 11.7834 20.8828 12.1323 20.8828ZM9.78857 13.0625L4.96826 11.5859C4.91097 11.5703 4.87191 11.5534 4.85107 11.5352C4.83024 11.5169 4.81982 11.4948 4.81982 11.4688C4.81982 11.4427 4.82894 11.4193 4.84717 11.3984C4.8654 11.3776 4.89795 11.3594 4.94482 11.3438L14.2886 7.78906C14.5907 7.67448 14.8914 7.54557 15.1909 7.40234C15.4904 7.25911 15.7964 7.11719 16.1089 6.97656C15.8485 7.1849 15.575 7.40755 15.2886 7.64453C15.0021 7.88151 14.7521 8.10417 14.5386 8.3125L9.78857 13.0625ZM12.1831 18.875C12.2013 18.901 12.2261 18.9141 12.2573 18.9141C12.2834 18.9141 12.3055 18.9023 12.3237 18.8789C12.342 18.8555 12.3589 18.8203 12.3745 18.7734L15.9292 9.42969C16.0438 9.1224 16.174 8.81771 16.3198 8.51562C16.4657 8.21354 16.6089 7.90625 16.7495 7.59375L16.0737 8.42188C15.8315 8.71875 15.6089 8.97135 15.4058 9.17969L10.6558 13.9297L12.1323 18.75C12.1479 18.8073 12.1649 18.849 12.1831 18.875Z" fill="#00BAFF"/>
</svg>
