<svg width="24" height="24" viewBox="0 0 24 24" fill="none" xmlns="http://www.w3.org/2000/svg">
<path fill-rule="evenodd" clip-rule="evenodd" d="M18.2031 10.0234C18.6406 9.59635 18.9374 9.13281 19.0937 8.63281C19.2499 8.13281 19.263 7.63671 19.1328 7.14452C19.0025 6.65234 18.7265 6.19531 18.3046 5.77343C17.8775 5.35156 17.4179 5.07551 16.9257 4.94531C16.4335 4.8151 15.9387 4.82682 15.4413 4.98046C14.944 5.13411 14.4791 5.43228 14.0468 5.87499L18.2031 10.0234ZM11.9999 20C12.2031 20 12.3736 19.931 12.5117 19.793C12.6497 19.6549 12.7187 19.487 12.7187 19.2891V14.9219L12.6613 13.9107L14.9103 11.8237L14.9481 11.8279C15.2317 11.8536 15.5162 11.8321 15.8014 11.7635L16.0156 11.7031C16.5156 11.5417 16.9843 11.2422 17.4218 10.8047L13.2812 6.64062C12.8333 7.08333 12.5312 7.55208 12.3749 8.04687C12.2633 8.40029 12.2248 8.75305 12.2593 9.10514L12.2673 9.16068L5.40619 16.5391C5.29369 16.6641 5.22369 16.8016 5.19619 16.9516L5.18354 17.0664C5.17572 17.2617 5.25775 17.4531 5.42963 17.6406L4.46869 18.875C4.41661 18.9427 4.39187 19.0221 4.39447 19.1133C4.39708 19.2044 4.43744 19.2838 4.51557 19.3516L4.7265 19.5703C4.79421 19.638 4.87234 19.6758 4.96088 19.6836C5.04942 19.6914 5.13275 19.6641 5.21088 19.6016L6.44525 18.6328C6.62234 18.8099 6.80984 18.8958 7.00775 18.8906C7.20567 18.8854 7.38275 18.8099 7.539 18.6641L11.2803 15.1927L11.2812 19.2891C11.2812 19.4474 11.3254 19.5866 11.4137 19.7066L11.4882 19.793C11.6262 19.931 11.7968 20 11.9999 20ZM6.24213 17.1562L6.92963 17.8281L13.7093 11.3817L13.6414 11.3361C13.4742 11.2169 13.3124 11.0762 13.1562 10.9141L12.9864 10.727C12.879 10.601 12.7824 10.4709 12.6963 10.3367L6.24213 17.1562Z" fill="white"/>
</svg>
