<svg width="24" height="24" viewBox="0 0 24 24" fill="none" xmlns="http://www.w3.org/2000/svg">
<path fill-rule="evenodd" clip-rule="evenodd" d="M13.6167 11.1719C13.1297 11.4896 12.592 11.6484 12.0034 11.6484C11.4149 11.6484 10.8771 11.4909 10.3901 11.1758C9.90316 10.8607 9.51514 10.4401 9.22607 9.91406C8.93701 9.38802 8.79248 8.80469 8.79248 8.16406C8.78727 7.53385 8.9305 6.96094 9.22217 6.44531C9.51383 5.92969 9.90316 5.51823 10.3901 5.21094C10.8771 4.90365 11.4149 4.75 12.0034 4.75C12.5972 4.75 13.1375 4.90234 13.6245 5.20703C14.1115 5.51172 14.4995 5.92057 14.7886 6.43359C15.0776 6.94661 15.2222 7.51823 15.2222 8.14844C15.2222 8.78906 15.0763 9.3737 14.7847 9.90234C14.493 10.431 14.1037 10.8542 13.6167 11.1719ZM11.0386 10.1367C11.3328 10.3372 11.6545 10.4375 12.0034 10.4375C12.3576 10.4375 12.6805 10.3359 12.9722 10.1328C13.2638 9.92969 13.4982 9.65495 13.6753 9.30859C13.8524 8.96224 13.9409 8.57552 13.9409 8.14844C13.9409 7.73698 13.8537 7.36589 13.6792 7.03516C13.5047 6.70443 13.2716 6.44271 12.98 6.25C12.6883 6.05729 12.3628 5.96094 12.0034 5.96094C11.6493 5.96094 11.325 6.05859 11.0308 6.25391C10.7365 6.44922 10.5021 6.71354 10.3276 7.04688C10.1532 7.38021 10.0659 7.7526 10.0659 8.16406C10.0659 8.59115 10.1545 8.97656 10.3315 9.32031C10.5086 9.66406 10.7443 9.9362 11.0386 10.1367ZM16.6206 18.5C17.8602 18.5 18.48 18.0911 18.48 17.2734C18.48 16.7734 18.3302 16.25 18.0308 15.7031C17.7313 15.1562 17.299 14.6419 16.7339 14.1602C16.1688 13.6784 15.4878 13.2865 14.6909 12.9844C13.894 12.6823 12.9982 12.5312 12.0034 12.5312C11.0034 12.5312 10.105 12.6823 9.30811 12.9844C8.51123 13.2865 7.83024 13.6784 7.26514 14.1602C6.70003 14.6419 6.26774 15.1562 5.96826 15.7031C5.66878 16.25 5.51904 16.7734 5.51904 17.2734C5.51904 18.0911 6.13883 18.5 7.37842 18.5H11.9998H16.6206ZM7.08936 17.2891H16.9097C17.0034 17.2891 17.0698 17.2747 17.1089 17.2461C17.1479 17.2174 17.1675 17.1667 17.1675 17.0938C17.1675 16.8073 17.0542 16.4727 16.8276 16.0898C16.6011 15.707 16.2677 15.3385 15.8276 14.9844C15.3875 14.6302 14.8472 14.3346 14.2065 14.0977C13.5659 13.8607 12.8315 13.7422 12.0034 13.7422C11.1753 13.7422 10.4396 13.8607 9.79639 14.0977C9.15316 14.3346 8.61149 14.6302 8.17139 14.9844C7.73128 15.3385 7.39925 15.707 7.17529 16.0898C6.95133 16.4727 6.83936 16.8073 6.83936 17.0938C6.83936 17.1667 6.85889 17.2174 6.89795 17.2461C6.93701 17.2747 7.00081 17.2891 7.08936 17.2891Z" fill="white"/>
</svg>
