<svg width="24" height="24" viewBox="0 0 24 24" fill="none" xmlns="http://www.w3.org/2000/svg">
<path fill-rule="evenodd" clip-rule="evenodd" d="M18.2607 17.9375C17.8623 18.3333 17.2673 18.5312 16.4756 18.5312H7.52246C6.736 18.5312 6.14225 18.3346 5.74121 17.9414C5.34017 17.5482 5.13965 16.9609 5.13965 16.1797V7.17188C5.13965 6.39062 5.34017 5.80339 5.74121 5.41016C6.14225 5.01693 6.736 4.82031 7.52246 4.82031H16.4756C17.2673 4.82031 17.8623 5.01823 18.2607 5.41406C18.6592 5.8099 18.8584 6.39583 18.8584 7.17188V16.1797C18.8584 16.9557 18.6592 17.5417 18.2607 17.9375ZM7.57715 17.1953H16.4209C16.7699 17.1953 17.0407 17.1016 17.2334 16.9141C17.4261 16.7266 17.5225 16.4479 17.5225 16.0781V7.27344C17.5225 6.90365 17.4261 6.625 17.2334 6.4375C17.0407 6.25 16.7699 6.15625 16.4209 6.15625H7.57715C7.22819 6.15625 6.95866 6.25 6.76855 6.4375C6.57845 6.625 6.4834 6.90365 6.4834 7.27344V16.0781C6.4834 16.4479 6.57845 16.7266 6.76855 16.9141C6.95866 17.1016 7.22819 17.1953 7.57715 17.1953ZM11.8506 13.1641C12.0433 13.1641 12.1969 13.112 12.3115 13.0078C12.4261 12.9036 12.486 12.776 12.4912 12.625V12.5859C12.4912 12.5703 12.4938 12.5547 12.499 12.5391C12.5042 12.3411 12.5706 12.1693 12.6982 12.0234C12.8258 11.8776 13.012 11.724 13.2568 11.5625C13.6214 11.3281 13.9144 11.082 14.1357 10.8242C14.3571 10.5664 14.4678 10.2214 14.4678 9.78906C14.4678 9.3776 14.3584 9.02995 14.1396 8.74609C13.9209 8.46224 13.6305 8.24609 13.2686 8.09766C12.9066 7.94922 12.5094 7.875 12.0771 7.875C11.4417 7.875 10.9209 8.0013 10.5146 8.25391C10.1084 8.50651 9.85319 8.80469 9.74902 9.14844C9.72298 9.21094 9.70475 9.27344 9.69434 9.33594C9.68392 9.39844 9.67871 9.46354 9.67871 9.53125C9.67871 9.70312 9.736 9.83724 9.85059 9.93359C9.96517 10.0299 10.098 10.0781 10.249 10.0781C10.4574 10.0781 10.6032 10.0299 10.6865 9.93359C10.7699 9.83724 10.8714 9.72135 10.9912 9.58594C11.111 9.39323 11.2555 9.24349 11.4248 9.13672C11.5941 9.02995 11.7933 8.97656 12.0225 8.97656C12.335 8.97656 12.585 9.05729 12.7725 9.21875C12.96 9.38021 13.0537 9.59375 13.0537 9.85938C13.0537 10.099 12.9756 10.2956 12.8193 10.4492C12.6631 10.6029 12.4261 10.7917 12.1084 11.0156C11.8428 11.1979 11.6227 11.3971 11.4482 11.6133C11.2738 11.8294 11.1865 12.112 11.1865 12.4609V12.5469C11.1865 12.9583 11.4079 13.1641 11.8506 13.1641ZM12.4209 15.1719C12.2542 15.3229 12.0589 15.3984 11.835 15.3984C11.6058 15.3984 11.4092 15.3216 11.2451 15.168C11.0811 15.0143 10.999 14.8281 10.999 14.6094C10.999 14.3854 11.0798 14.1966 11.2412 14.043C11.4027 13.8893 11.6006 13.8125 11.835 13.8125C12.0589 13.8125 12.2542 13.888 12.4209 14.0391C12.5876 14.1901 12.6709 14.3802 12.6709 14.6094C12.6709 14.8333 12.5876 15.0208 12.4209 15.1719Z" fill="white"/>
</svg>
