<svg width="40" height="40" viewBox="0 0 40 40" fill="none" xmlns="http://www.w3.org/2000/svg">
<path id="logo" fill-rule="evenodd" clip-rule="evenodd" d="M19.4056 39.9906C19.6032 39.9964 19.8012 40 20 40C31.0457 40 39.9999 31.0456 39.9999 20C39.9999 8.95424 31.0457 0 20 0C19.6987 0 19.3993 0.00777776 19.1011 0.0210185L15.0098 11.2654H18.5728C20.6928 11.2654 21.8351 12.8969 21.1092 14.8911L16.0631 28.7586L11.826 28.7579L17.2409 13.8939H14.0553L8.64044 28.7579L4.40175 28.7575L10.769 11.2654H10.7702L14.6002 0.738332C6.17786 3.09453 0 10.8254 0 20C0 29.447 6.55035 37.3633 15.3568 39.4569L19.0688 29.2576H19.0712L25.6188 11.2654H33.4224C35.5444 11.2654 36.6866 12.8969 35.9611 14.8911L31.5267 27.0712C31.189 27.9985 30.1052 28.7575 29.1179 28.7575H23.4929L19.4056 39.9906ZM28.9163 13.8833H32.101L27.6412 26.1201H24.4564L28.9163 13.8833Z" fill="white"/>
</svg>
